<svg width="820" height="380" viewBox="0 0 820 380" xmlns="http://www.w3.org/2000/svg">
  <defs>
    <marker id="arrow" markerWidth="10" markerHeight="10" refX="8" refY="3" orient="auto" markerUnits="strokeWidth">
      <path d="M0,0 L0,6 L9,3 z" fill="#4ade80"/>
    </marker>
  </defs>
  <rect width="820" height="380" fill="#0f172a" rx="14"/>

  <g font-family="Consolas, Monaco, monospace">
    <rect x="30" y="24" width="760" height="56" rx="10" fill="#111827" stroke="#f87171" stroke-width="1.6"/>
    <text x="410" y="58" font-size="17" fill="#f87171" text-anchor="middle">/proc  ·  /proc/net  ·  /proc/sys/kernel  ·  POSIX signals (kill)  ·  .desktop autostart files</text>

    <line x1="410" y1="80" x2="410" y2="106" stroke="#4ade80" stroke-width="2" marker-end="url(#arrow)"/>

    <rect x="30" y="108" width="176" height="60" rx="10" fill="#111827" stroke="#22d3ee" stroke-width="1.6"/>
    <text x="118" y="132" font-size="14" fill="#22d3ee" text-anchor="middle">ProcessReader</text>
    <text x="118" y="150" font-size="11.5" fill="#64748b" text-anchor="middle">stat / status / io</text>

    <rect x="216" y="108" width="176" height="60" rx="10" fill="#111827" stroke="#22d3ee" stroke-width="1.6"/>
    <text x="304" y="132" font-size="14" fill="#22d3ee" text-anchor="middle">NetworkConnectionReader</text>
    <text x="304" y="150" font-size="11.5" fill="#64748b" text-anchor="middle">tcp / udp / inode-&gt;pid</text>

    <rect x="402" y="108" width="176" height="60" rx="10" fill="#111827" stroke="#22d3ee" stroke-width="1.6"/>
    <text x="490" y="132" font-size="14" fill="#22d3ee" text-anchor="middle">RootkitDetector</text>
    <text x="490" y="150" font-size="11.5" fill="#64748b" text-anchor="middle">kill(pid, 0) sweep</text>

    <rect x="588" y="108" width="200" height="60" rx="10" fill="#111827" stroke="#22d3ee" stroke-width="1.6"/>
    <text x="688" y="132" font-size="14" fill="#22d3ee" text-anchor="middle">AutostartManager</text>
    <text x="688" y="150" font-size="11.5" fill="#64748b" text-anchor="middle">.desktop parser</text>

    <line x1="118" y1="168" x2="118" y2="196" stroke="#4ade80" stroke-width="2" marker-end="url(#arrow)"/>
    <line x1="304" y1="168" x2="304" y2="196" stroke="#4ade80" stroke-width="2" marker-end="url(#arrow)"/>
    <line x1="490" y1="168" x2="490" y2="196" stroke="#4ade80" stroke-width="2" marker-end="url(#arrow)"/>
    <line x1="688" y1="168" x2="688" y2="196" stroke="#4ade80" stroke-width="2" marker-end="url(#arrow)"/>

    <rect x="30" y="198" width="176" height="52" rx="10" fill="#111827" stroke="#facc15" stroke-width="1.6"/>
    <text x="118" y="230" font-size="14" fill="#facc15" text-anchor="middle">ProcessTableModel</text>

    <rect x="216" y="198" width="176" height="52" rx="10" fill="#111827" stroke="#facc15" stroke-width="1.6"/>
    <text x="304" y="230" font-size="14" fill="#facc15" text-anchor="middle">NetworkTableModel</text>

    <rect x="402" y="198" width="176" height="52" rx="10" fill="#111827" stroke="#facc15" stroke-width="1.6"/>
    <text x="490" y="230" font-size="13" fill="#facc15" text-anchor="middle">QSortFilterProxyModel</text>

    <rect x="588" y="198" width="200" height="52" rx="10" fill="#111827" stroke="#facc15" stroke-width="1.6"/>
    <text x="688" y="230" font-size="14" fill="#facc15" text-anchor="middle">AutostartTableModel</text>

    <line x1="118" y1="250" x2="350" y2="290" stroke="#4ade80" stroke-width="2" marker-end="url(#arrow)"/>
    <line x1="304" y1="250" x2="380" y2="290" stroke="#4ade80" stroke-width="2" marker-end="url(#arrow)"/>
    <line x1="490" y1="250" x2="440" y2="290" stroke="#4ade80" stroke-width="2" marker-end="url(#arrow)"/>
    <line x1="688" y1="250" x2="480" y2="290" stroke="#4ade80" stroke-width="2" marker-end="url(#arrow)"/>

    <rect x="240" y="292" width="340" height="62" rx="12" fill="#0b1220" stroke="#4ade80" stroke-width="2"/>
    <text x="410" y="320" font-size="18" font-weight="bold" fill="#4ade80" text-anchor="middle">MainWindow (Qt6 Widgets)</text>
    <text x="410" y="340" font-size="12" fill="#94a3b8" text-anchor="middle">Tabs · Context Menu · Ctrl+F Search · 2s Refresh Timer</text>
  </g>
</svg>
