<svg width="900" height="360" viewBox="0 0 900 360" xmlns="http://www.w3.org/2000/svg">
  <rect width="900" height="360" rx="12" fill="#1e293b"/>

  <rect x="0" y="0" width="900" height="34" rx="12" fill="#0f172a"/>
  <circle cx="20" cy="17" r="6" fill="#f87171"/>
  <circle cx="40" cy="17" r="6" fill="#facc15"/>
  <circle cx="60" cy="17" r="6" fill="#4ade80"/>
  <text x="450" y="22" font-family="Segoe UI, sans-serif" font-size="13" fill="#94a3b8" text-anchor="middle">Linux Process Hacker v0.2 — Network Tab</text>

  <rect x="0" y="34" width="120" height="30" fill="#0b1220"/>
  <text x="60" y="53" font-family="Segoe UI, sans-serif" font-size="12" fill="#64748b" text-anchor="middle">Processes</text>
  <rect x="120" y="34" width="100" height="30" fill="#111827"/>
  <text x="170" y="53" font-family="Segoe UI, sans-serif" font-size="12" fill="#f8fafc" text-anchor="middle">Network</text>
  <rect x="220" y="34" width="100" height="30" fill="#0b1220"/>
  <text x="270" y="53" font-family="Segoe UI, sans-serif" font-size="12" fill="#64748b" text-anchor="middle">Autostart</text>

  <g font-family="Consolas, monospace" font-size="11.5" fill="#94a3b8">
    <rect x="0" y="64" width="900" height="26" fill="#111827"/>
    <text x="16" y="81" fill="#64748b">Protocol</text>
    <text x="100" y="81" fill="#64748b">Local Address</text>
    <text x="270" y="81" fill="#64748b">Local Port</text>
    <text x="360" y="81" fill="#64748b">Remote Address</text>
    <text x="540" y="81" fill="#64748b">Remote Port</text>
    <text x="630" y="81" fill="#64748b">State</text>
    <text x="720" y="81" fill="#64748b">PID</text>
    <text x="780" y="81" fill="#64748b">Process</text>

    <g><rect x="0" y="90" width="900" height="24" fill="#1e293b"/>
      <text x="16" y="106" fill="#22d3ee">TCP</text><text x="100" y="106">192.168.1.42</text><text x="270" y="106">51820</text>
      <text x="360" y="106">140.82.112.3</text><text x="540" y="106">443</text>
      <text x="630" y="106" fill="#4ade80">ESTABLISHED</text><text x="720" y="106">1842</text><text x="780" y="106" fill="#f8fafc">firefox</text></g>
    <g><rect x="0" y="114" width="900" height="24" fill="#18202f"/>
      <text x="16" y="130" fill="#22d3ee">TCP</text><text x="100" y="130">127.0.0.1</text><text x="270" y="130">5432</text>
      <text x="360" y="130">0.0.0.0</text><text x="540" y="130">0</text>
      <text x="630" y="130" fill="#facc15">LISTEN</text><text x="720" y="130">1290</text><text x="780" y="130" fill="#f8fafc">postgres</text></g>
    <g><rect x="0" y="138" width="900" height="24" fill="#1e293b"/>
      <text x="16" y="154" fill="#a78bfa">TCP6</text><text x="100" y="154">::1</text><text x="270" y="154">8080</text>
      <text x="360" y="154">::1</text><text x="540" y="154">55210</text>
      <text x="630" y="154" fill="#4ade80">ESTABLISHED</text><text x="720" y="154">2210</text><text x="780" y="154" fill="#f8fafc">code</text></g>
    <g><rect x="0" y="162" width="900" height="24" fill="#18202f"/>
      <text x="16" y="178" fill="#fb923c">UDP</text><text x="100" y="178">192.168.1.42</text><text x="270" y="178">68</text>
      <text x="360" y="178">192.168.1.1</text><text x="540" y="178">67</text>
      <text x="630" y="178" fill="#64748b">-</text><text x="720" y="178">980</text><text x="780" y="178" fill="#f8fafc">NetworkManager</text></g>
    <g><rect x="0" y="186" width="900" height="24" fill="#1e293b"/>
      <text x="16" y="202" fill="#22d3ee">TCP</text><text x="100" y="202">192.168.1.42</text><text x="270" y="202">44122</text>
      <text x="360" y="202">185.199.108.133</text><text x="540" y="202">443</text>
      <text x="630" y="202" fill="#f87171">TIME_WAIT</text><text x="720" y="202">1842</text><text x="780" y="202" fill="#f8fafc">firefox</text></g>
  </g>

  <text x="20" y="330" font-family="Segoe UI, sans-serif" font-size="12" fill="#4ade80">✓ Sockets resolved to owning PID via /proc/[pid]/fd inode matching</text>
</svg>
