<svg width="900" height="520" viewBox="0 0 900 520" xmlns="http://www.w3.org/2000/svg">
  <rect width="900" height="520" rx="12" fill="#1e293b"/>

  <rect x="0" y="0" width="900" height="34" rx="12" fill="#0f172a"/>
  <circle cx="20" cy="17" r="6" fill="#f87171"/>
  <circle cx="40" cy="17" r="6" fill="#facc15"/>
  <circle cx="60" cy="17" r="6" fill="#4ade80"/>
  <text x="450" y="22" font-family="Segoe UI, sans-serif" font-size="13" fill="#94a3b8" text-anchor="middle">Linux Process Hacker v0.2</text>

  <rect x="0" y="34" width="900" height="40" fill="#111827"/>
  <text x="20" y="59" font-family="Consolas, monospace" font-size="14" fill="#4ade80">CPU: 23.4%</text>
  <text x="140" y="59" font-family="Consolas, monospace" font-size="14" fill="#22d3ee">Memory: 61.2%</text>
  <rect x="700" y="42" width="180" height="24" rx="6" fill="#1e293b" stroke="#f87171" stroke-width="1.2"/>
  <text x="790" y="58" font-family="Segoe UI, sans-serif" font-size="12" fill="#f87171" text-anchor="middle">Scan for Hidden Processes</text>

  <rect x="0" y="74" width="900" height="30" fill="#0b1220"/>
  <text x="20" y="94" font-family="Segoe UI, sans-serif" font-size="12" fill="#64748b">Search:</text>
  <rect x="65" y="80" width="300" height="18" rx="4" fill="#1e293b"/>
  <text x="75" y="93" font-family="Segoe UI, sans-serif" font-size="11" fill="#475569">Filter by PID, name, or user...</text>

  <rect x="0" y="104" width="120" height="30" fill="#111827"/>
  <text x="60" y="123" font-family="Segoe UI, sans-serif" font-size="12" fill="#f8fafc" text-anchor="middle">Processes</text>
  <rect x="120" y="104" width="100" height="30" fill="#0b1220"/>
  <text x="170" y="123" font-family="Segoe UI, sans-serif" font-size="12" fill="#64748b" text-anchor="middle">Network</text>
  <rect x="220" y="104" width="100" height="30" fill="#0b1220"/>
  <text x="270" y="123" font-family="Segoe UI, sans-serif" font-size="12" fill="#64748b" text-anchor="middle">Autostart</text>

  <g font-family="Consolas, monospace" font-size="11.5" fill="#94a3b8">
    <rect x="0" y="134" width="900" height="26" fill="#111827"/>
    <text x="16" y="151" fill="#64748b">PID</text>
    <text x="80" y="151" fill="#64748b">Name</text>
    <text x="260" y="151" fill="#64748b">User</text>
    <text x="340" y="151" fill="#64748b">State</text>
    <text x="420" y="151" fill="#64748b">CPU %</text>
    <text x="490" y="151" fill="#64748b">Mem %</text>
    <text x="560" y="151" fill="#64748b">RSS (KB)</text>
    <text x="660" y="151" fill="#64748b">Disk Read</text>
    <text x="760" y="151" fill="#64748b">Disk Write</text>

    <g>
      <rect x="0" y="160" width="900" height="24" fill="#1e293b"/>
      <text x="16" y="176">1842</text><text x="80" y="176" fill="#f8fafc">firefox</text><text x="260" y="176">user</text>
      <text x="340" y="176" fill="#4ade80">Running</text><text x="420" y="176">12.3</text><text x="490" y="176">8.1</text>
      <text x="560" y="176">412880</text><text x="660" y="176" fill="#facc15">128.4</text><text x="760" y="176" fill="#facc15">4.2</text>
    </g>
    <g>
      <rect x="0" y="184" width="900" height="24" fill="#18202f"/>
      <text x="16" y="200">2210</text><text x="80" y="200" fill="#f8fafc">code</text><text x="260" y="200">user</text>
      <text x="340" y="200" fill="#4ade80">Sleeping</text><text x="420" y="200">3.1</text><text x="490" y="200">5.7</text>
      <text x="560" y="200">298112</text><text x="660" y="200">0.0</text><text x="760" y="200">0.8</text>
    </g>
    <g>
      <rect x="0" y="208" width="900" height="24" fill="#7f1d1d" opacity="0.55"/>
      <text x="16" y="224" fill="#fecaca">6161</text><text x="80" y="224" fill="#fecaca">[hidden:6161]</text><text x="260" y="224" fill="#fecaca">???</text>
      <text x="340" y="224" fill="#fecaca">Unknown</text><text x="420" y="224" fill="#fecaca">-</text><text x="490" y="224" fill="#fecaca">-</text>
      <text x="560" y="224" fill="#fecaca">-</text><text x="660" y="224" fill="#fecaca">-</text><text x="760" y="224" fill="#fecaca">-</text>
    </g>
    <g>
      <rect x="0" y="232" width="900" height="24" fill="#1e293b"/>
      <text x="16" y="248">3355</text><text x="80" y="248" fill="#f8fafc">systemd</text><text x="260" y="248">root</text>
      <text x="340" y="248" fill="#4ade80">Running</text><text x="420" y="248">0.2</text><text x="490" y="248">0.4</text>
      <text x="560" y="248">10244</text><text x="660" y="248">0.0</text><text x="760" y="248">0.0</text>
    </g>
    <g>
      <rect x="0" y="256" width="900" height="24" fill="#18202f"/>
      <text x="16" y="272">4489</text><text x="80" y="272" fill="#f8fafc">rsync</text><text x="260" y="272">user</text>
      <text x="340" y="272" fill="#4ade80">Disk Sleep</text><text x="420" y="272">1.8</text><text x="490" y="272">0.9</text>
      <text x="560" y="272">18004</text><text x="660" y="272" fill="#facc15">2201.7</text><text x="760" y="272" fill="#facc15">3.1</text>
    </g>
  </g>

  <rect x="380" y="330" width="260" height="150" rx="10" fill="#0b1220" stroke="#334155" stroke-width="1.4"/>
  <text x="400" y="356" font-family="Segoe UI, sans-serif" font-size="12" fill="#f8fafc">Terminate (SIGTERM)</text>
  <text x="400" y="380" font-family="Segoe UI, sans-serif" font-size="12" fill="#f8fafc">Kill (SIGKILL)</text>
  <text x="400" y="404" font-family="Segoe UI, sans-serif" font-size="12" fill="#f8fafc">Suspend (SIGSTOP)</text>
  <text x="400" y="428" font-family="Segoe UI, sans-serif" font-size="12" fill="#f8fafc">Resume (SIGCONT)</text>
  <line x1="392" y1="440" x2="628" y2="440" stroke="#334155" stroke-width="1"/>
  <text x="400" y="462" font-family="Segoe UI, sans-serif" font-size="12" fill="#22d3ee">Memory Dump...</text>
</svg>
